<?xml version="1.0" encoding="utf-8"?>
<!-- Generator: Adobe Illustrator 26.0.2, SVG Export Plug-In . SVG Version: 6.00 Build 0)  -->
<svg version="1.1" id="Layer_1" xmlns="http://www.w3.org/2000/svg" xmlns:xlink="http://www.w3.org/1999/xlink" x="0px" y="0px"
	 viewBox="0 0 304.9 498.8" style="enable-background:new 0 0 304.9 498.8;" xml:space="preserve">
<g>
	<g>
		<path style="fill:#1D456A;" d="M76.6,404.9v17.2c0,26.1-13.1,41.1-38.3,41.1C13.1,463.2,0,448.3,0,422.1V315.9
			c0-26.1,13.1-41.1,38.3-41.1c25.2,0,38.3,14.9,38.3,41.1v11.4H52.3v-13c0-11.7-5.1-16.1-13.3-16.1c-8.2,0-13.3,4.4-13.3,16.1
			v109.5c0,11.7,5.1,15.9,13.3,15.9c8.2,0,13.3-4.2,13.3-15.9v-18.8H76.6z"/>
		<path style="fill:#1D456A;" d="M302.3,314.3v16.5c0,16.8-5.1,27.5-16.6,32.9c13.8,5.4,19.2,17.7,19.2,35v23.9
			c0,25.2-13.3,38.7-39,38.7h-40.4V276.7h38.8C290.9,276.7,302.3,289,302.3,314.3z M251.2,300v53.8h10c9.6,0,15.4-4.2,15.4-17.3
			v-19.7c0-11.7-4-16.8-13.1-16.8H251.2z M251.2,377.2V438h14.7c8.6,0,13.3-4,13.3-16.1V397c0-15.2-4.9-19.8-16.6-19.8H251.2z"/>
		<path style="fill:#1D456A;" d="M126.5,461.3H102V276.7h24.5v77.1h48v-77.1h25.7v184.6h-25.7v-84.2h-48V461.3z"/>
		<g>
			<path style="fill:#1D456A;" d="M4.2,491.8v-2.3h2.2c1.6,0,3.2-0.4,3.2-1.8c0-0.9-0.7-2-3.1-2c-1.4,0-3.2,0.5-3.2,1.9H0.4
				c0-3.3,3.3-4.5,6.1-4.5c2.9,0,6,1.4,6,4.6c0,1.2-0.8,2.6-2.1,3c1.5,0.5,2.5,1.9,2.5,3.2c0,3.7-3.5,4.8-6.4,4.8
				c-2.9,0-6.2-1.2-6.2-4.7H3c0,1.6,2.1,2.1,3.3,2.1c1.5,0,3.4-0.6,3.4-2.3c0-0.9-0.5-2-3.2-2H4.2z"/>
			<path style="fill:#1D456A;" d="M29.4,498.4H26l-4.4-5.1h-2.8v5.1h-2.9v-15.3c2.4,0,4.8,0,7.2,0c3.6,0,5.5,2.4,5.5,5.1
				c0,2.1-1,4.2-3.9,4.8l4.6,5.2V498.4z M18.8,485.9v4.9h4.4c1.8,0,2.6-1.2,2.6-2.4c0-1.2-0.8-2.4-2.6-2.4H18.8z"/>
			<path style="fill:#1D456A;" d="M44.6,490.7c0.1,3.9-2.3,7.7-7.6,7.7c-1.9,0-4.1,0-6,0v-15.2c1.9,0,4.1,0,6,0
				C42.2,483.2,44.6,486.9,44.6,490.7z M33.9,495.7H37c3.5,0,4.8-2.5,4.8-5c-0.1-2.4-1.5-4.7-4.8-4.7h-3.1V495.7z"/>
			<path style="fill:#1D456A;" d="M59.4,493.9h-4.3v4.5h-2.9v-15.2c2.4,0,4.8,0,7.2,0C66.9,483.2,66.9,493.9,59.4,493.9z
				 M55.1,491.3h4.3c3.7,0,3.7-5.4,0-5.4h-4.3V491.3z"/>
			<path style="fill:#1D456A;" d="M76.2,495.6h-8l-1.3,2.9h-3.1l6.8-15.2h3.1l6.8,15.2h-3.1L76.2,495.6z M72.3,486.4l-2.8,6.5h5.7
				L72.3,486.4z"/>
			<path style="fill:#1D456A;" d="M95.9,498.4h-3.4l-4.4-5.1h-2.8v5.1h-2.9v-15.3c2.4,0,4.8,0,7.2,0c3.6,0,5.5,2.4,5.5,5.1
				c0,2.1-1,4.2-3.9,4.8l4.6,5.2V498.4z M85.3,485.9v4.9h4.4c1.8,0,2.6-1.2,2.6-2.4c0-1.2-0.8-2.4-2.6-2.4H85.3z"/>
			<path style="fill:#1D456A;" d="M102.1,485.8h-4.8v-2.6c4.4,0,8.1,0,12.5,0v2.6H105v12.6h-2.9V485.8z"/>
			<path style="fill:#1D456A;" d="M118.6,489.5l4.1-6.3h3.5v0.1l-6.1,8.8v6.3h-2.9v-6.3l-5.9-8.8v-0.1h3.4L118.6,489.5z"/>
			<path style="fill:#1D456A;" d="M133.1,498.4v-15.2h2.9v15.2H133.1z"/>
			<path style="fill:#1D456A;" d="M149.4,483.2h2.9v15.3h-1.8v0l-8-10.3v10.3h-2.9v-15.2h2.3l7.5,9.4V483.2z"/>
			<path style="fill:#1D456A;" d="M165.2,486.9c-0.5-0.9-2-1.7-3.6-1.7c-2.1,0-3.2,0.9-3.2,2c0,1.3,1.6,1.7,3.4,1.9
				c3.2,0.4,6.1,1.2,6.1,4.8c0,3.4-3,4.8-6.4,4.8c-3.1,0-5.5-1-6.6-3.7l2.4-1.2c0.7,1.7,2.4,2.4,4.3,2.4c1.8,0,3.5-0.6,3.5-2.3
				c0-1.4-1.5-2-3.5-2.2c-3.1-0.4-6-1.2-6-4.6c0-3.1,3.1-4.4,5.9-4.4c2.4,0,4.8,0.7,6,3L165.2,486.9z"/>
			<path style="fill:#1D456A;" d="M177.6,493.9h-4.3v4.5h-2.9v-15.2c2.4,0,4.8,0,7.2,0C185,483.2,185,493.9,177.6,493.9z
				 M173.3,491.3h4.3c3.7,0,3.7-5.4,0-5.4h-4.3V491.3z"/>
			<path style="fill:#1D456A;" d="M196.7,498.4h-11.4c0-5.1,0-10.2,0-15.2h11.4v2.8h-8.6v3.5h8.2v2.7h-8.2v3.4h8.6V498.4z"/>
			<path style="fill:#1D456A;" d="M213,496.5c-1.6,1.5-3.6,2.3-5.8,2.3c-5.7,0-8.1-3.9-8.1-7.9c0-4,2.6-8,8.1-8c2.1,0,4,0.8,5.6,2.3
				l-1.9,1.8c-1-1-2.3-1.4-3.7-1.4c-3.7,0-5.3,2.7-5.2,5.3c0,2.5,1.5,5.2,5.2,5.2c1.3,0,2.8-0.6,3.8-1.5L213,496.5z"/>
			<path style="fill:#1D456A;" d="M219,485.8h-4.8v-2.6c4.4,0,8.1,0,12.5,0v2.6h-4.8v12.6H219V485.8z"/>
			<path style="fill:#1D456A;" d="M244.1,490.9c0,3.9-2.5,7.9-7.8,7.9c-5.4,0-7.8-3.8-7.8-7.9c0-4,2.6-8,7.8-8
				C241.5,482.9,244.1,486.9,244.1,490.9z M231.3,491c0.1,2.5,1.4,5.2,5,5.2c3.6,0,4.9-2.7,5-5.2c0-2.6-1.4-5.4-5-5.4
				C232.7,485.5,231.2,488.4,231.3,491z"/>
			<path style="fill:#1D456A;" d="M260.4,498.4h-3.4l-4.4-5.1h-2.8v5.1h-2.9v-15.3c2.4,0,4.8,0,7.2,0c3.6,0,5.5,2.4,5.5,5.1
				c0,2.1-1,4.2-3.9,4.8l4.6,5.2V498.4z M249.7,485.9v4.9h4.4c1.8,0,2.6-1.2,2.6-2.4c0-1.2-0.8-2.4-2.6-2.4H249.7z"/>
			<path style="fill:#1D456A;" d="M273,495.6h-8l-1.3,2.9h-3.1l6.8-15.2h3.1l6.8,15.2h-3.1L273,495.6z M269,486.4l-2.8,6.5h5.7
				L269,486.4z"/>
			<path style="fill:#1D456A;" d="M282.2,485.8h-4.8v-2.6c4.4,0,8.1,0,12.5,0v2.6h-4.8v12.6h-2.9V485.8z"/>
			<path style="fill:#1D456A;" d="M304.1,498.4h-11.4c0-5.1,0-10.2,0-15.2h11.4v2.8h-8.5v3.5h8.3v2.7h-8.3v3.4h8.5V498.4z"/>
		</g>
	</g>
	<g>
		<path style="fill:#DF2027;" d="M175.7,124.6c-25.1,6-52.2-17.2-60.5-51.8c-2.7-11.3-3-22.4-1.4-32.5C87.6,60,80.1,96.7,97.4,125.3
			c18.4,30.4,58,40.1,88.4,21.7c30.2-18.3,40-57.6,22-87.9C212.4,90.6,198.9,119.1,175.7,124.6z"/>
		<path style="fill:#EF4B30;" d="M198.9,50.1c-4.1-17.1-13-31.1-23.7-39.4c2.5,3.2,4.8,6.7,6.8,10.6c11.8,22.4,9.9,46.6-4.2,54
			c-14.1,7.4-35.1-4.7-46.9-27.2c-3.7-7-6-14.2-7.1-21c-4.2,11.6-5,26.2-1.4,41.2c7.4,30.8,30.5,51.8,51.6,46.7
			C195.1,110,206.2,80.9,198.9,50.1z"/>
		<path style="fill:#F3792A;" d="M175.7,24c-8-15.2-20.9-24.7-31.2-24c5.7,2,11.7,6.1,16.8,11.9c10.8,12.2,13.7,27.4,6.4,33.8
			c-7.3,6.5-22,1.8-32.8-10.4c-1.2-1.4-2.4-2.9-3.4-4.3c1.1,4.4,2.8,9,5.2,13.6c9.5,18.1,25.9,28.1,36.7,22.5
			C184.2,61.3,185.3,42.1,175.7,24z"/>
	</g>
	<g>
		<g>
			<g>
				<path style="fill:#1D456A;" d="M127.2,181.2c-1-0.5-2.2-1-3.5-1.6c-2.3-1-4.8-2.1-7.1-3.5c-3.8-2.4-16-15-23.7-25.1
					c-5.5-7.2-11.9-10.8-19-10.8c-3.6,0-6.8,1-9,1.9c6.8,8.6,30.5,44.8,30.5,44.8l5.4,6.9L85,183.3l-29.4-43.1l2.8-1.9
					c0.2-0.1,4.7-3.1,11.3-4.1c-5.5-11.8-6.2-26.5-8.2-45.6c-2-19.3-13.8-23.4-18.5-24.2c0.2,9.7,1,59,1,73c0,1.3,0,2.7,0,4.1
					c-0.2,15-0.3,31.9,16.2,47.6c10.8,10.2,53.7,53.5,63.6,53.5c9.9,0,13.8-13.2,18.1-21.9C145.2,213.8,149.5,193.1,127.2,181.2z"/>
			</g>
		</g>
		<g>
			<g>
				<path style="fill:#1D456A;" d="M261,137.4c0-14,0.8-63.3,0.9-73c-4.8,0.8-16.5,4.9-18.5,24.2c-2,19.1-2.7,33.8-8.2,45.6
					c6.6,1,11.1,4,11.3,4.1l2.8,1.9l-29.4,43.1l-15.9,10.4l5.4-6.9c0,0,23.8-36.2,30.6-44.8c-2.2-0.9-5.3-1.9-9-1.9
					c-7.1,0-13.5,3.6-19,10.8c-7.7,10.1-19.9,22.7-23.7,25.1c-2.3,1.4-4.8,2.5-7.1,3.5c-1.3,0.6-2.5,1.1-3.5,1.6
					c-22.2,11.9-18,32.6-14.6,39.6c4.3,8.6,8.2,21.9,18.1,21.9c9.9,0,52.9-43.3,63.6-53.5c16.5-15.6,16.3-32.6,16.2-47.6
					C261,140.1,261,138.8,261,137.4z"/>
			</g>
		</g>
	</g>
</g>
</svg>
